<?xml version="1.0" encoding="UTF-8" standalone="no"?>
<svg
   xmlns:dc="http://purl.org/dc/elements/1.1/"
   xmlns:cc="http://creativecommons.org/ns#"
   xmlns:rdf="http://www.w3.org/1999/02/22-rdf-syntax-ns#"
   xmlns:svg="http://www.w3.org/2000/svg"
   xmlns="http://www.w3.org/2000/svg"
   viewBox="0 0 1221.0844 1408"
   height="1408"
   width="1221.0844"
   xml:space="preserve"
   id="svg2"
   version="1.1"><metadata
     id="metadata8"><rdf:RDF><cc:Work
         rdf:about=""><dc:format>image/svg+xml</dc:format><dc:type
           rdf:resource="http://purl.org/dc/dcmitype/StillImage" /></cc:Work></rdf:RDF></metadata><defs
     id="defs6"><clipPath
       id="clipPath20"
       clipPathUnits="userSpaceOnUse"><path
         id="path18"
         d="M 0,-100320 H 87936 V 1056 H 0 Z" /></clipPath><clipPath
       id="clipPath332"
       clipPathUnits="userSpaceOnUse"><path
         id="path330"
         d="m 38,1002 h 788 v 35 H 38 Z" /></clipPath><clipPath
       id="clipPath346"
       clipPathUnits="userSpaceOnUse"><path
         id="path344"
         d="m 38,982 h 788 v 18 H 38 Z" /></clipPath><clipPath
       id="clipPath360"
       clipPathUnits="userSpaceOnUse"><path
         id="path358"
         d="m 224,982 h 789 v 18 H 224 Z" /></clipPath></defs><g
     transform="matrix(1.3333333,0,0,-1.3333333,0,1408)"
     id="g10"><g
       id="g12" /><g
       id="g14"><g
       id="g340"><g
         clip-path="url(#clipPath346)"
         id="g342"><g
           transform="translate(48,-56.55212)"
           id="g348"><text
             id="text352"
             style="font-variant:normal;font-weight:normal;font-size:13.33333015px;font-family:Calibri;-inkscape-font-specification:Calibri;writing-mode:lr-tb;fill:#767676;fill-opacity:1;fill-rule:nonzero;stroke:none"
             transform="matrix(1,0,0,-1,0,1044.403)"><tspan
               id="tspan350"
               y="0"
               x="0 6.4973316 13.502664 20.507996 25.155994 30.370659 37.375992 43.762657 49.797321 53.123985 56.138653 62.895985 65.910652 72.037315 78.671982 85.677315 90.143974 96.778641 107.42931 114.43464 121.06931 125.7173 128.73196 135.4893 142.24663 149.00397">Thursday,	8	September	2022</tspan></text>
</g></g></g><g
       id="g354"><g
         clip-path="url(#clipPath360)"
         id="g356"><g
           transform="translate(234.3616,-56.55212)"
           id="g362"><text
             id="text366"
             style="font-variant:normal;font-weight:normal;font-size:13.33333015px;font-family:Calibri;-inkscape-font-specification:Calibri;writing-mode:lr-tb;fill:#767676;fill-opacity:1;fill-rule:nonzero;stroke:none"
             transform="matrix(1,0,0,-1,0,1044.403)"><tspan
               id="tspan364"
               y="0"
               x="0 6.7573318 13.514664 17.085329 23.842661 30.599993 33.610657 41.327991">12:30	AM</tspan></text>
</g></g></g></g></svg>